<svg width="1792" height="1792" viewBox="0 0 1792 1792" xmlns="http://www.w3.org/2000/svg"><path d="M128 896q0-209 103-385.5t279.5-279.5 385.5-103 385.5 103 279.5 279.5 103 385.5-103 385.5-279.5 279.5-385.5 103-385.5-103-279.5-279.5-103-385.5zm224 0q0 148 73 273t198 198 273 73 273-73 198-198 73-273-73-273-198-198-273-73-273 73-198 198-73 273zm192-32q0-12 10-24l319-319q11-9 23-9t23 9l320 320q15 16 7 35-8 20-30 20h-192v352q0 14-9 23t-23 9h-192q-14 0-23-9t-9-23v-352h-192q-14 0-23-9t-9-23z" fill="#fff"/></svg>