<svg width="1792" height="1792" viewBox="0 0 1792 1792" xmlns="http://www.w3.org/2000/svg"><path d="M128 1536v-170q119 84 325 127t443 43 443-43 325-127v170q0 69-103 128t-280 93.5-385 34.5-385-34.5-280-93.5-103-128zm0-384v-170q119 84 325 127t443 43 443-43 325-127v170q0 69-103 128t-280 93.5-385 34.5-385-34.5-280-93.5-103-128zm0-384v-170q119 84 325 127t443 43 443-43 325-127v170q0 69-103 128t-280 93.5-385 34.5-385-34.5-280-93.5-103-128zm0-384v-128q0-69 103-128t280-93.5 385-34.5 385 34.5 280 93.5 103 128v128q0 69-103 128t-280 93.5-385 34.5-385-34.5-280-93.5-103-128z" fill="#fff"/></svg>