<svg width="1792" height="1792" viewBox="0 0 1792 1792" xmlns="http://www.w3.org/2000/svg"><path d="M64 1408v-384q0-52 38-90t90-38h512q52 0 90 38t38 90v384q0 52-38 90t-90 38h-512q-52 0-90-38t-38-90zm0-768v-384q0-52 38-90t90-38h512q52 0 90 38t38 90v384q0 52-38 90t-90 38h-512q-52 0-90-38t-38-90zm896 768v-384q0-52 38-90t90-38h512q52 0 90 38t38 90v384q0 52-38 90t-90 38h-512q-52 0-90-38t-38-90zm0-768v-384q0-52 38-90t90-38h512q52 0 90 38t38 90v384q0 52-38 90t-90 38h-512q-52 0-90-38t-38-90z" fill="#fff"/></svg>