<svg width="1792" height="1792" viewBox="0 0 1792 1792" xmlns="http://www.w3.org/2000/svg"><path d="M0 1440v-192q0-40 28-68t68-28h320q40 0 68 28t28 68v192q0 40-28 68t-68 28h-320q-40 0-68-28t-28-68zm0-512v-192q0-40 28-68t68-28h320q40 0 68 28t28 68v192q0 40-28 68t-68 28h-320q-40 0-68-28t-28-68zm0-512v-192q0-40 28-68t68-28h320q40 0 68 28t28 68v192q0 40-28 68t-68 28h-320q-40 0-68-28t-28-68zm640 1024v-192q0-40 28-68t68-28h320q40 0 68 28t28 68v192q0 40-28 68t-68 28h-320q-40 0-68-28t-28-68zm0-512v-192q0-40 28-68t68-28h320q40 0 68 28t28 68v192q0 40-28 68t-68 28h-320q-40 0-68-28t-28-68zm0-512v-192q0-40 28-68t68-28h320q40 0 68 28t28 68v192q0 40-28 68t-68 28h-320q-40 0-68-28t-28-68zm640 1024v-192q0-40 28-68t68-28h320q40 0 68 28t28 68v192q0 40-28 68t-68 28h-320q-40 0-68-28t-28-68zm0-512v-192q0-40 28-68t68-28h320q40 0 68 28t28 68v192q0 40-28 68t-68 28h-320q-40 0-68-28t-28-68zm0-512v-192q0-40 28-68t68-28h320q40 0 68 28t28 68v192q0 40-28 68t-68 28h-320q-40 0-68-28t-28-68z" fill="#fff"/></svg>